<?xml version="1.0" standalone="no"?>
<!DOCTYPE svg PUBLIC "-//W3C//DTD SVG 20010904//EN"
 "http://www.w3.org/TR/2001/REC-SVG-20010904/DTD/svg10.dtd">
<svg version="1.0" xmlns="http://www.w3.org/2000/svg"
 width="791.000000pt" height="791.000000pt" viewBox="0 0 791.000000 791.000000"
 preserveAspectRatio="xMidYMid meet">
<metadata>
Created by potrace 1.14, written by Peter Selinger 2001-2017
</metadata>
<g transform="translate(0.000000,791.000000) scale(0.100000,-0.100000)"
fill="#000000" stroke="none">
<path d="M5638 6725 c-2 -1 -52 -5 -113 -9 -60 -3 -126 -8 -145 -10 -66 -7
-135 -17 -153 -22 -10 -3 -30 -7 -45 -9 -15 -2 -56 -11 -92 -19 -36 -8 -76
-17 -90 -20 -34 -6 -222 -65 -229 -71 -5 -6 1 -7 69 -10 30 -1 75 -5 100 -9
25 -4 61 -9 80 -12 40 -5 61 -9 137 -25 29 -5 54 -9 55 -8 2 1 12 -3 24 -9 11
-6 32 -13 45 -16 43 -7 182 -66 268 -113 127 -68 163 -95 279 -210 45 -45 82
-86 82 -92 0 -6 5 -11 10 -11 6 0 10 -5 10 -10 0 -6 9 -21 20 -33 21 -22 28
-34 85 -147 33 -66 89 -221 99 -275 2 -17 8 -43 11 -60 4 -16 9 -43 11 -60 2
-16 6 -57 10 -90 9 -75 10 -284 1 -388 -6 -74 -10 -105 -23 -172 -3 -16 -7
-43 -9 -60 -1 -16 -4 -31 -5 -32 -3 -4 -5 -11 -14 -63 -5 -25 -10 -52 -12 -60
-4 -18 -33 -131 -38 -145 -1 -5 -8 -30 -15 -55 -7 -25 -16 -52 -19 -60 -3 -8
-6 -17 -7 -20 -1 -3 -4 -12 -7 -20 -4 -8 -19 -53 -35 -100 -15 -47 -32 -88
-38 -92 -5 -4 -7 -8 -3 -8 7 0 -29 -89 -88 -218 -19 -41 -34 -78 -34 -83 0 -5
-5 -9 -12 -9 -6 0 -9 -3 -5 -6 8 -8 -96 -204 -214 -403 -20 -35 -156 -244
-166 -256 -4 -5 -21 -30 -38 -55 -16 -25 -32 -47 -35 -50 -3 -3 -32 -41 -65
-85 -175 -233 -360 -438 -581 -644 -38 -35 -64 -62 -57 -60 21 7 437 333 489
384 6 5 32 28 58 50 27 22 58 49 71 60 12 11 60 54 106 95 169 151 610 602
668 684 8 11 22 27 30 35 98 98 399 515 502 696 19 33 39 69 46 80 74 122 276
581 265 602 -1 2 6 22 14 45 9 24 17 52 20 63 2 11 10 49 19 85 8 36 17 79 19
95 3 17 5 30 6 30 3 0 7 34 15 120 31 318 -17 572 -156 815 -42 74 -152 200
-237 271 -38 33 -139 96 -207 131 -64 33 -221 91 -277 102 -13 3 -48 10 -78
15 -30 6 -66 14 -80 16 -14 3 -79 8 -145 11 -66 3 -128 7 -137 8 -9 2 -18 3
-20 1z"/>
<path d="M7294 6198 c59 -108 118 -279 141 -408 4 -19 9 -48 12 -65 9 -53 11
-328 2 -390 -4 -33 -11 -82 -15 -110 -11 -87 -92 -372 -113 -399 -4 -6 -14
-29 -21 -51 -18 -57 -115 -257 -161 -333 -21 -35 -39 -66 -39 -68 0 -4 -99
-162 -112 -179 -4 -5 -45 -62 -89 -125 -45 -63 -100 -137 -122 -165 -80 -98
-182 -220 -202 -241 -11 -11 -47 -52 -80 -90 -74 -85 -366 -377 -500 -501
-128 -118 -156 -143 -290 -258 -39 -33 -72 -62 -75 -65 -3 -4 -41 -35 -85 -71
-44 -36 -89 -72 -100 -81 -86 -71 -248 -197 -400 -312 -71 -55 -141 -107 -155
-118 -14 -10 -65 -48 -115 -83 -49 -35 -95 -68 -100 -73 -6 -5 -24 -17 -40
-28 -17 -10 -34 -23 -40 -27 -5 -5 -62 -44 -125 -88 -63 -43 -119 -82 -125
-87 -5 -4 -120 -81 -255 -170 -135 -89 -250 -165 -256 -169 -5 -5 -19 -13 -30
-20 -10 -6 -83 -52 -162 -102 -79 -50 -147 -91 -153 -91 -5 0 -9 -4 -9 -10 0
-5 -7 -10 -15 -10 -8 0 -15 -4 -15 -9 0 -5 -10 -13 -22 -17 -13 -4 -25 -10
-28 -13 -3 -4 -69 -45 -147 -92 -160 -94 -188 -123 -68 -70 11 5 56 23 100 41
44 17 89 35 100 40 11 5 110 46 220 91 170 70 264 110 370 159 11 5 60 28 110
50 49 22 134 62 190 87 147 69 648 323 665 338 8 7 26 16 40 20 14 4 27 11 30
15 3 3 41 26 85 50 216 118 513 304 772 482 71 50 229 165 258 189 11 10 65
53 120 96 55 44 112 90 127 104 15 13 51 44 80 69 77 65 405 394 469 470 30
36 57 67 60 70 7 6 117 147 144 184 20 28 68 93 83 111 17 22 132 206 132 211
0 3 8 18 19 32 25 36 132 249 171 342 77 181 146 443 166 625 10 91 10 334 0
405 -5 30 -10 66 -11 80 -24 184 -116 440 -217 608 -21 34 -38 66 -38 71 0 5
-3 11 -7 13 -5 2 -35 43 -68 91 -73 110 -111 137 -61 45z"/>
<path d="M4588 6245 c-2 -2 -35 -5 -73 -8 -39 -3 -77 -8 -85 -11 -14 -4 -72
-14 -130 -20 -14 -2 -79 -18 -145 -36 -66 -17 -125 -33 -132 -34 -7 -1 -16 -5
-19 -9 -4 -4 -13 -7 -21 -7 -12 0 -235 -81 -315 -115 -21 -8 -40 -15 -43 -16
-12 -1 -372 -184 -448 -227 -46 -27 -91 -52 -98 -56 -8 -3 -33 -19 -56 -34
-23 -15 -63 -40 -88 -55 -42 -26 -265 -179 -290 -199 -5 -5 -37 -29 -70 -54
-68 -51 -62 -46 -170 -134 -146 -119 -357 -319 -458 -435 -63 -72 -49 -65 32
15 118 117 337 285 476 365 28 16 52 32 55 35 19 20 317 166 446 219 71 29
138 56 149 61 20 8 167 58 195 66 8 2 49 13 90 25 101 28 191 50 215 53 12 1
25 5 30 8 6 3 33 9 60 13 28 5 52 9 55 10 30 8 75 15 120 20 30 3 62 8 70 10
8 2 47 7 85 10 39 4 86 8 105 11 54 6 419 6 470 0 96 -13 126 -17 165 -22 22
-3 60 -10 85 -16 25 -6 54 -12 65 -13 63 -10 210 -63 332 -121 116 -56 299
-203 337 -272 5 -9 15 -23 22 -30 17 -17 94 -171 94 -188 0 -7 5 -16 11 -20 8
-5 9 32 5 132 -3 77 -8 150 -11 164 -3 14 -8 45 -11 70 -23 174 -104 374 -206
507 -138 180 -331 284 -613 329 -33 5 -283 13 -287 9z"/>
<path d="M925 4970 c-15 -3 -29 -12 -31 -20 -1 -8 -12 -51 -24 -95 -12 -44
-24 -87 -26 -95 -4 -19 -56 -211 -95 -355 -31 -112 -36 -131 -43 -162 -3 -10
-12 -45 -21 -78 -22 -78 -76 -287 -79 -300 -1 -5 -4 -14 -8 -20 -3 -5 -9 -26
-13 -45 -4 -19 -18 -75 -32 -125 -14 -49 -26 -97 -28 -105 -2 -12 -36 -134
-69 -255 -2 -5 -6 -28 -11 -50 -4 -22 -10 -44 -14 -50 -3 -5 -6 -15 -7 -20 -2
-16 -135 -518 -142 -535 -3 -8 -6 -19 -7 -25 -2 -5 -10 -37 -19 -70 -10 -33
-19 -73 -22 -89 -3 -16 -10 -41 -16 -55 -5 -14 -12 -38 -15 -53 -4 -25 -1 -28
24 -29 15 0 166 -1 336 -2 l307 -2 15 45 c14 45 26 86 70 255 13 50 65 243
115 430 51 187 94 347 96 355 2 8 17 65 33 125 16 61 39 146 50 190 30 114 43
155 51 155 6 0 36 -91 46 -137 1 -6 13 -47 27 -90 13 -43 37 -118 52 -168 15
-49 42 -139 60 -200 19 -60 48 -157 65 -215 17 -58 37 -123 45 -145 7 -22 28
-89 45 -150 18 -60 45 -150 61 -200 15 -49 38 -125 51 -167 20 -71 24 -78 48
-78 257 -5 683 -1 690 6 8 9 47 142 56 194 3 14 11 44 19 67 8 23 17 52 19 65
8 38 14 60 31 123 9 33 27 98 39 145 62 231 96 358 105 388 5 18 10 34 11 37
0 3 3 10 5 17 2 7 9 33 15 58 14 59 14 61 40 155 17 65 69 261 86 325 2 8 20
74 39 145 39 142 93 341 99 365 2 8 9 38 16 65 6 28 14 57 17 65 3 8 7 20 8
25 2 6 8 30 15 55 11 42 14 52 24 99 3 11 10 29 16 40 6 12 9 21 6 21 -2 0 6
38 19 85 22 77 22 85 7 86 -126 6 -655 2 -661 -6 -7 -9 -46 -147 -43 -152 1
-2 -5 -21 -13 -44 -9 -23 -17 -51 -19 -63 -4 -19 -112 -432 -123 -466 -2 -8
-4 -16 -4 -17 0 -2 -5 -17 -10 -35 -10 -31 -13 -44 -23 -85 -7 -28 -41 -155
-84 -313 -22 -80 -53 -196 -68 -257 -16 -62 -32 -113 -36 -113 -4 0 -21 46
-38 103 -17 56 -36 116 -41 132 -5 17 -21 67 -35 113 -14 46 -27 89 -28 95 -2
7 -11 39 -21 72 -11 33 -20 63 -21 68 -1 4 -3 9 -4 12 -1 3 -3 8 -4 13 -1 4
-7 23 -13 42 -6 19 -25 80 -41 135 -46 154 -111 366 -123 403 -6 18 -13 44
-15 59 -3 15 -11 31 -17 35 -7 4 -9 8 -5 8 4 0 2 15 -3 33 -6 17 -12 37 -13
42 -1 6 -11 37 -21 70 -11 33 -20 63 -21 68 -1 4 -3 9 -4 12 -1 3 -3 9 -4 14
0 5 -4 13 -8 17 -9 8 -647 12 -693 4z"/>
<path d="M3409 4968 c-10 -4 -20 -14 -20 -23 -2 -24 -4 -29 -12 -42 -5 -7 -6
-13 -3 -13 3 0 1 -11 -4 -25 -5 -14 -12 -38 -15 -53 -8 -38 -13 -57 -15 -57
-2 0 -5 -14 -14 -53 -3 -13 -8 -32 -11 -42 -3 -10 -8 -27 -10 -37 -4 -17 -26
-99 -81 -298 -14 -49 -27 -101 -30 -115 -2 -14 -11 -47 -19 -75 -26 -90 -65
-233 -68 -252 -1 -10 -5 -22 -9 -28 -5 -8 -16 -53 -33 -135 0 -3 -6 -21 -13
-41 -7 -20 -14 -45 -16 -55 -2 -10 -20 -80 -40 -154 -21 -74 -39 -142 -40
-150 -2 -8 -11 -42 -20 -75 -9 -33 -18 -67 -21 -75 -2 -8 -44 -168 -95 -355
-50 -187 -93 -347 -95 -355 -2 -8 -9 -37 -15 -63 -7 -26 -10 -51 -6 -54 8 -8
652 -7 665 1 7 5 19 43 38 121 9 41 12 50 13 50 1 0 3 7 5 15 1 8 8 35 16 60
7 25 14 52 15 60 2 8 7 31 13 50 12 39 151 557 156 580 2 8 15 58 30 110 14
52 28 102 30 110 16 70 105 394 109 397 2 3 9 -10 14 -29 6 -18 29 -94 52
-168 23 -74 53 -173 66 -220 14 -47 28 -92 31 -100 3 -8 7 -20 9 -27 2 -13 29
-101 71 -238 14 -44 35 -114 47 -155 13 -41 31 -102 42 -135 10 -33 19 -64 20
-70 1 -5 12 -40 24 -78 12 -37 23 -73 24 -80 1 -6 20 -67 41 -134 33 -105 41
-123 59 -124 12 0 82 -1 156 0 l135 0 23 28 c13 15 33 39 45 53 13 14 58 73
102 130 44 58 88 113 98 124 9 11 17 23 17 27 0 4 6 14 13 21 35 35 277 407
277 426 0 6 4 12 8 14 24 10 84 143 106 238 2 8 23 85 46 170 23 85 44 162 45
170 2 8 15 58 30 110 52 190 96 355 100 375 3 11 19 70 35 130 17 61 33 117
35 126 2 9 18 69 35 135 18 65 33 124 35 129 1 6 7 30 14 55 7 25 15 54 17 66
2 12 10 40 18 63 14 38 14 41 -2 42 -60 3 -663 1 -666 -2 -3 -3 -53 -190 -81
-299 -12 -49 -137 -512 -147 -545 -6 -22 -12 -44 -14 -50 -1 -5 -16 -64 -34
-130 -17 -66 -43 -163 -56 -215 -14 -52 -33 -124 -43 -160 -10 -36 -24 -84
-30 -107 -11 -41 -31 -59 -31 -28 0 8 -6 34 -14 57 -24 74 -68 217 -67 220 1
2 -12 44 -29 93 -17 50 -30 91 -29 93 1 3 -35 123 -62 207 -16 52 -71 230 -74
245 -1 3 -7 25 -15 50 -7 25 -15 50 -16 55 -2 6 -33 107 -69 225 -37 118 -70
230 -75 248 -5 19 -11 36 -14 39 -9 9 -684 9 -707 1z"/>
</g>
</svg>
